HIERARCHY
ROOT RootJoint
{
    OFFSET   0.000000   0.000000   0.000000
    CHANNELS 6 Xposition Yposition Zposition Xrotation Yrotation Zrotation
    JOINT pelvis_lowerback
    {
        OFFSET   0.000000   0.093605   0.000000
        CHANNELS 3 Xrotation Yrotation Zrotation
        JOINT lowerback_torso
        {
            OFFSET   0.000000   0.100000   0.000000
            CHANNELS 3 Xrotation Yrotation Zrotation
            JOINT torso_head
            {
                OFFSET   0.000000   0.282350   0.000000
                CHANNELS 3 Xrotation Yrotation Zrotation
                End Site
                {
                    OFFSET   0.000000   0.192650   0.000000
                }
            }
            JOINT rTorso_Clavicle
            {
                OFFSET  -0.001000   0.157500   0.000000
                CHANNELS 3 Xrotation Yrotation Zrotation
                JOINT rShoulder
                {
                    OFFSET  -0.117647   0.000000   0.000000
                    CHANNELS 3 Xrotation Yrotation Zrotation
                    JOINT rElbow
                    {
                        OFFSET  -0.245000   0.000000   0.000000
                        CHANNELS 3 Xrotation Yrotation Zrotation
                        JOINT rWrist
                        {
                            OFFSET  -0.240000   0.000000   0.000000
                            CHANNELS 3 Xrotation Yrotation Zrotation
                            End Site
                            {
                                OFFSET  -0.116353  -0.002500   0.000000
                            }
                        }
                    }
                }
            }
            JOINT lTorso_Clavicle
            {
                OFFSET   0.001000   0.157500   0.000000
                CHANNELS 3 Xrotation Yrotation Zrotation
                JOINT lShoulder
                {
                    OFFSET   0.117647   0.000000   0.000000
                    CHANNELS 3 Xrotation Yrotation Zrotation
                    JOINT lElbow
                    {
                        OFFSET   0.245000   0.000000   0.000000
                        CHANNELS 3 Xrotation Yrotation Zrotation
                        JOINT lWrist
                        {
                            OFFSET   0.240000   0.000000   0.000000
                            CHANNELS 3 Xrotation Yrotation Zrotation
                            End Site
                            {
                                OFFSET   0.116353  -0.002500   0.000000
                            }
                        }
                    }
                }
            }
        }
    }
    JOINT rHip
    {
        OFFSET  -0.100000  -0.051395   0.000000
        CHANNELS 3 Xrotation Yrotation Zrotation
        JOINT rKnee
        {
            OFFSET   0.000000  -0.410000   0.000000
            CHANNELS 3 Xrotation Yrotation Zrotation
            JOINT rAnkle
            {
                OFFSET   0.000000  -0.390000   0.000000
                CHANNELS 3 Xrotation Yrotation Zrotation
                JOINT rToeJoint
                {
                    OFFSET   0.000000  -0.050000   0.130000
                    CHANNELS 3 Xrotation Yrotation Zrotation
                    End Site
                    {
                        OFFSET  -0.010000   0.002000   0.060000
                    }
                }
            }
        }
    }
    JOINT lHip
    {
        OFFSET   0.100000  -0.051395   0.000000
        CHANNELS 3 Xrotation Yrotation Zrotation
        JOINT lKnee
        {
            OFFSET   0.000000  -0.410000   0.000000
            CHANNELS 3 Xrotation Yrotation Zrotation
            JOINT lAnkle
            {
                OFFSET   0.000000  -0.390000   0.000000
                CHANNELS 3 Xrotation Yrotation Zrotation
                JOINT lToeJoint
                {
                    OFFSET   0.000000  -0.050000   0.130000
                    CHANNELS 3 Xrotation Yrotation Zrotation
                    End Site
                    {
                        OFFSET   0.010000   0.002000   0.060000
                    }
                }
            }
        }
    }
}
MOTION
Frames: 15
Frame Time:   0.008333
 -2.376719   0.925631   3.975860   0.000000   0.000000   0.000000   0.000000   0.000000   0.000000   0.000000   0.000000   0.000000   0.000000   0.000000   0.000000   0.000000   0.000000   0.000000   0.000000   0.000000   0.000000   0.000000   0.000000   0.000000   0.000000   0.000000   0.000000   0.000000   0.000000   0.000000   0.000000   0.000000   0.000000   0.000000   0.000000   0.000000   0.000000   0.000000   0.000000   0.000000   0.000000   0.000000   0.000000   0.000000   0.000000   0.000000   0.000000   0.000000   0.000000   0.000000   0.000000   0.000000   0.000000   0.000000   0.000000   0.000000   0.000000   0.000000   0.000000   0.000000   0.000000   0.000000   0.000000
 -2.376455   0.926188   3.976052   0.325572   0.035462   0.052728  -0.434124   0.021173  -0.041170  -0.063067  -0.159042   0.028030  -0.017204   0.126270  -0.008531   0.235278  -0.389868   0.377316   0.989978   0.463139   1.990710   0.015047   0.711445  -0.006613   0.442928  -0.348023  -2.701567   0.178437   0.394352  -0.365585   1.111320  -0.177405  -2.042944   0.016852  -0.810991   0.008008   0.454505   0.244361   2.588688  -0.562846   0.140665  -0.208134   0.751399   0.001027   0.001143  -0.705438  -0.189379   0.003997  -0.146293  -0.000192   0.000017  -0.503361  -0.194193   0.011457   0.612443  -0.000351  -0.000848  -0.863122   0.248186   0.063084   0.307302  -0.000336   0.000239
 -2.376083   0.927144   3.976567   0.624598   0.086193   0.103025  -0.906450   0.027718  -0.061524  -0.173176  -0.325504   0.067829  -0.042334   0.245417  -0.014486   0.465681  -0.738147   1.464920   1.944657   0.980473   4.549432   0.034857   1.404735  -0.010764   0.917187  -0.483202  -4.687210   0.360042   0.744627  -1.443297   2.195697  -0.417927  -4.661771   0.038633  -1.595588   0.013224   0.945201   0.274648   4.434585  -1.061296   0.280841  -0.527087   1.533004   0.002691   0.002150  -1.364895  -0.368489   0.004405  -0.316118  -0.000549  -0.000004  -0.924888  -0.383922   0.094887   1.247217  -0.001051  -0.001438  -1.673937   0.480896   0.125774   0.537564  -0.000658   0.000380
 -2.375647   0.928097   3.977311   0.906907   0.140791   0.144013  -1.402508   0.026252  -0.061827  -0.320776  -0.488814   0.119675  -0.075790   0.356434  -0.018369   0.688508  -1.048939   2.986581   2.856715   1.542603   7.480203   0.054144   2.054715  -0.012943   1.372870  -0.555625  -5.846708   0.538296   1.051960  -2.951136   3.248148  -0.721443  -7.653435   0.059695  -2.332515   0.016270   1.418134   0.238900   5.461226  -1.502310   0.414931  -0.924099   2.282998   0.004543   0.002821  -1.980045  -0.536931   0.002080  -0.477249  -0.000941  -0.000032  -1.277287  -0.561479   0.247805   1.861371  -0.001923  -0.001777  -2.430994   0.698301   0.187680   0.740787  -0.000974   0.000473
 -2.375177   0.928753   3.978198   1.175223   0.192240   0.176181  -1.907742   0.019684  -0.045967  -0.493945  -0.646681   0.182011  -0.115017   0.460089  -0.021033   0.908539  -1.333893   4.753458   3.726775   2.149767  10.660164   0.070611   2.660764  -0.013859   1.806380  -0.607566  -6.389712   0.715560   1.330096  -4.697449   4.270322  -1.088109 -10.891662   0.077577  -3.021626   0.017934   1.869318   0.177917   5.888413  -1.898835   0.543222  -1.379640   2.992395   0.006327   0.003169  -2.554475  -0.695158  -0.002431  -0.630354  -0.001324  -0.000055  -1.574944  -0.727663   0.459236   2.448075  -0.002836  -0.001950  -3.138040   0.901380   0.248569   0.921507  -0.001254   0.000521
 -2.374690   0.928898   3.979163   1.429136   0.236171   0.201226  -2.410514   0.009300  -0.017022  -0.681143  -0.798386   0.253008  -0.157463   0.556906  -0.022990   1.128458  -1.599234   6.639562   4.554254   2.802201  14.005142   0.083416   3.224533  -0.014020   2.217855  -0.653224  -6.514476   0.893149   1.586710  -6.555539   5.261725  -1.517800 -14.290534   0.091398  -3.664688   0.018766   2.298464   0.106701   5.916652  -2.259616   0.666266  -1.878859   3.660264   0.007901   0.003251  -3.090967  -0.843623  -0.008677  -0.775061  -0.001665  -0.000069  -1.827797  -0.883515   0.717572   3.006003  -0.003701  -0.002021  -3.798375   1.090968   0.308176   1.083037  -0.001482   0.000530
 -2.374230   0.928364   3.980153   1.668031   0.269875   0.222876  -2.902067  -0.003957   0.017805  -0.873199  -0.943375   0.321071  -0.201345   0.647286  -0.021616   1.349433  -1.847005   8.566674   5.337485   3.500727  17.461709   0.092506   3.748673  -0.013772   2.608573  -0.696852  -6.362921   1.072394   1.824812  -8.476278   6.187582  -1.993894 -17.692484   0.100893  -4.265381   0.018951   2.707672   0.023668   5.638888  -2.591183   0.784571  -2.408866   4.287394   0.009177   0.003129  -3.592075  -0.982826  -0.016317  -0.911365  -0.001947  -0.000071  -2.043607  -1.029886   1.012869   3.535052  -0.004476  -0.002031  -4.415063   1.267833   0.366225   1.227976  -0.001655   0.000510
 -2.373778   0.926429   3.980696   1.889800   0.227175   0.226169  -3.196402   0.013873   0.134883  -1.104385  -1.083208   0.317809  -0.434839   0.631086  -0.060328   1.578096  -1.958704   9.810025   6.299668   4.283154  20.906333   0.105605   4.475316  -0.017082   2.948346  -0.739784  -5.139757   1.292700   2.092893  -9.651180   6.988438  -2.556023 -21.096569   0.108434  -4.957472   0.020233   3.057770  -0.187565   4.349838  -2.951521   0.769969  -2.859790   4.876979   0.009656   0.001899  -3.920484  -1.146186   0.185548  -0.906419  -0.001546  -0.000067  -2.166199  -1.031912   1.274003   3.529760  -0.003568  -0.001625  -4.672412   1.435560   0.525351   1.392526  -0.001917   0.000595
 -2.373355   0.923305   3.980918   2.109155   0.189762   0.225421  -3.417908   0.029974   0.255491  -1.301715  -1.207344   0.317908  -0.661571   0.609828  -0.103056   1.775469  -2.006772  10.803860   7.144261   5.101614  24.007065   0.111354   5.173424  -0.019633   3.299548  -0.654119  -3.953651   1.488122   2.308060 -10.560544   7.698224  -3.141099 -24.147877   0.109634  -5.615577   0.021105   3.399533  -0.485846   3.131492  -3.311853   0.748310  -3.251375   5.413929   0.009558   0.000955  -4.224661  -1.301269   0.373233  -0.885337  -0.001198  -0.000095  -2.343735  -1.031042   1.488536   3.440696  -0.002686  -0.001285  -4.915022   1.591707   0.674888   1.554484  -0.002027   0.000660
 -2.372951   0.919106   3.980943   2.316199   0.159585   0.221980  -3.585912   0.051057   0.375063  -1.464117  -1.315802   0.326072  -0.867968   0.589508  -0.144108   1.942211  -2.015830  11.619253   7.882041   5.927645  26.812892   0.111928   5.835504  -0.021351   3.643806  -0.507798  -2.971166   1.657635   2.482095 -11.283236   8.325184  -3.732887 -26.899118   0.106717  -6.236553   0.021431   3.727599  -0.813520   2.136629  -3.649451   0.729384  -3.590651   5.907583   0.009111   0.000295  -4.508358  -1.446691   0.547762  -0.864472  -0.000926  -0.000114  -2.561209  -1.030970   1.659570   3.326268  -0.001978  -0.001012  -5.143207   1.736389   0.814930   1.701746  -0.001996   0.000692
 -2.372513   0.919303   3.981361   2.439116   0.187183   0.348284  -3.744641   0.061501   0.396912  -1.605559  -1.421330   0.296504  -1.045407   0.570089  -0.187614   2.107529  -2.025558  12.624304   8.533177   6.730590  29.479577   0.110788   6.445298  -0.021798   3.974389  -0.406217  -2.215162   1.819018   2.645971 -12.180889   8.882278  -4.312786 -29.497956   0.102925  -6.806986   0.020715   4.040637  -1.070838   1.393447  -4.003793   0.780187  -3.778039   6.436850   0.007604   0.000374  -4.737749  -1.493949   0.894386  -0.795145  -0.000911  -0.000091  -2.824271  -0.987774   1.500801   3.571578  -0.001517  -0.000660  -4.839660   1.911120   0.853421   1.922380  -0.001629   0.001018
 -2.372096   0.919525   3.981918   2.554078   0.229316   0.497815  -3.901102   0.080281   0.419404  -1.736131  -1.512556   0.258837  -1.215791   0.552387  -0.231402   2.262111  -2.030743  13.416278   9.104710   7.516284  31.957660   0.106902   7.025760  -0.021762   4.289239  -0.245260  -1.361793   1.972375   2.800080 -12.872529   9.379391  -4.879679 -31.912816   0.097110  -7.349130   0.019614   4.335570  -1.377283   0.554251  -4.293658   0.806286  -3.975763   6.880201   0.006289   0.000393  -4.973130  -1.583737   1.035203  -0.753283  -0.000762  -0.000090  -2.981710  -0.977377   1.310882   3.699120  -0.001170  -0.000478  -4.882298   2.037632   0.959889   2.093668  -0.001399   0.001079
 -2.371737   0.919699   3.982483   2.683525   0.313390   0.635631  -4.052450   0.094973   0.460274  -1.866510  -1.598166   0.231126  -1.377782   0.535691  -0.271860   2.401848  -2.031345  14.072261   9.607750   8.269507  34.214455   0.101005   7.568758  -0.021375   4.589789  -0.073993  -0.605062   2.111989   2.940212 -13.438971   9.822143  -5.424524 -34.113735   0.089918  -7.856121   0.018213   4.615020  -1.685778  -0.192297  -4.569048   0.832103  -4.155622   7.279869   0.005201   0.000558  -5.196887  -1.666860   1.160747  -0.717965  -0.000636  -0.000072  -3.126257  -0.972932   1.137259   3.768507  -0.000915  -0.000334  -4.957495   2.152839   1.063403   2.223069  -0.001192   0.001091
 -2.371493   0.919902   3.983091   2.787356   0.394312   0.736552  -4.112953   0.119342   0.492056  -2.012600  -1.628356   0.275216  -1.538541   0.439612  -0.343858   2.512743  -2.106195  14.252466  10.047723   8.989525  36.002014   0.093365   8.179301  -0.021302   4.842153   0.282758   0.866541   2.239634   3.116349 -13.587134  10.168822  -6.017415 -36.001100   0.082926  -8.480258   0.017056   4.870574  -2.024430  -1.452854  -4.698140   0.807280  -4.286444   7.439101   0.004202   0.000490  -5.344204  -1.692736   1.221188  -0.488310  -0.000581  -0.000022  -3.139877  -1.005024   1.012296   3.639218  -0.000758  -0.000313  -4.961532   2.290883   1.142292   2.329745  -0.000999   0.001044
 -2.371381   0.920112   3.983593   2.925456   0.477855   0.816516  -4.158865   0.150006   0.528283  -2.154941  -1.648799   0.317504  -1.687885   0.348479  -0.405446   2.586386  -2.162545  14.134432  10.441596   9.659491  37.464272   0.083299   8.751328  -0.020893   5.078318   0.664996   2.061215   2.336271   3.266528 -13.480221  10.473544  -6.572392 -37.590537   0.073978  -9.068810   0.015768   5.109542  -2.400929  -2.472637  -4.831983   0.781605  -4.386531   7.527123   0.003377   0.000423  -5.501958  -1.717474   1.276452  -0.272585  -0.000546   0.000030  -3.165713  -1.038878   0.917907   3.456233  -0.000627  -0.000317  -4.997517   2.418903   1.218708   2.431402  -0.000846   0.000992
